<?xml version="1.0" standalone="no"?>
<!DOCTYPE svg PUBLIC "-//W3C//DTD SVG 20010904//EN"
 "http://www.w3.org/TR/2001/REC-SVG-20010904/DTD/svg10.dtd">
<svg version="1.0" xmlns="http://www.w3.org/2000/svg"
 width="220.000000pt" height="220.000000pt" viewBox="0 0 220.000000 220.000000"
 preserveAspectRatio="xMidYMid meet">
<metadata>
Created by potrace 1.14, written by Peter Selinger 2001-2017
</metadata>
<g transform="translate(0.000000,220.000000) scale(0.100000,-0.100000)"
fill="#000000" stroke="none">
<path d="M0 1100 l0 -1100 1100 0 1100 0 0 1100 0 1100 -1100 0 -1100 0 0
-1100z m1781 311 c72 -293 127 -537 122 -541 -4 -4 -267 -73 -584 -152 l-576
-145 -107 430 c-58 237 -103 434 -99 437 17 15 907 230 912 221 11 -18 133
-522 128 -527 -3 -3 -88 10 -190 30 -101 20 -188 36 -194 36 -5 0 -60 -47
-123 -105 -63 -58 -118 -105 -121 -105 -11 0 -32 121 -23 129 5 4 58 52 117
106 l108 99 142 -27 c78 -14 142 -25 143 -24 2 1 -12 61 -30 132 -30 121 -34
130 -55 127 -33 -3 -664 -163 -677 -170 -8 -5 13 -104 67 -326 44 -176 81
-321 83 -323 4 -5 922 223 947 235 14 6 1 65 -95 449 -61 243 -114 444 -117
448 -6 5 -1189 -291 -1198 -301 -3 -3 230 -941 271 -1090 l8 -31 257 63 256
62 69 -61 c38 -34 72 -63 76 -64 4 -2 26 39 49 90 l41 92 280 71 279 71 12
-50 c6 -27 10 -51 9 -52 -2 -1 -119 -31 -260 -66 l-257 -63 -52 -126 c-29 -69
-56 -129 -60 -134 -5 -5 -52 31 -110 84 l-101 93 -281 -70 c-155 -38 -285 -67
-288 -64 -8 8 -331 1322 -326 1327 2 2 318 82 703 177 604 150 700 171 706
158 4 -9 67 -256 139 -550z"/>
</g>
</svg>
