<svg width="22" height="22" viewBox="0 0 22 22" fill="none" xmlns="http://www.w3.org/2000/svg">
<g clip-path="url(#clip0_39_70)">
<path d="M21.4679 9.70357L19.9674 8.20339C19.6113 7.84728 19.3195 7.14355 19.3195 6.63887V4.51724C19.3195 3.508 18.495 2.68352 17.4861 2.68298H15.3636C14.8595 2.68298 14.1549 2.39063 13.7988 2.03478L12.2986 0.534609C11.5858 -0.178203 10.4187 -0.178203 9.70587 0.534609L8.2057 2.03586C7.84926 2.39197 7.14392 2.68352 6.64091 2.68352H4.51928C3.51138 2.68352 2.68582 3.508 2.68582 4.51724V6.63892C2.68582 7.14161 2.39406 7.84755 2.0379 8.20344L0.537453 9.70362C-0.175896 10.4164 -0.175896 11.5835 0.537453 12.2975L2.0379 13.7977C2.39428 14.1538 2.68582 14.8594 2.68582 15.3622V17.4839C2.68582 18.492 3.51138 19.3176 4.51928 19.3176H6.64096C7.14505 19.3176 7.84959 19.6093 8.20575 19.9652L9.70593 21.466C10.4187 22.1782 11.5858 22.1782 12.2987 21.466L13.7988 19.9652C14.1553 19.6091 14.8595 19.3176 15.3636 19.3176H17.4861C18.4951 19.3176 19.3196 18.492 19.3196 17.4839V15.3622C19.3196 14.8573 19.6116 14.1536 19.9675 13.7977L21.4679 12.2975C22.1802 11.5835 22.1802 10.4164 21.4679 9.70357ZM9.54694 15.1253L5.50189 11.0797L6.79828 9.7836L9.54726 12.5326L15.206 6.87515L16.5021 8.17127L9.54694 15.1253Z" fill="#B1B1B1"/>
</g>
<defs>
<clipPath id="clip0_39_70">
<rect width="22" height="22" fill="white"/>
</clipPath>
</defs>
</svg>
