<svg xmlns="http://www.w3.org/2000/svg" xmlns:xlink="http://www.w3.org/1999/xlink" viewBox="0 0 808.77 504.52"><defs><style>.cls-1{fill:url(#linear-gradient);}.cls-2{fill:#fff;}</style><linearGradient id="linear-gradient" x1="423.54" y1="1146.78" x2="699.73" y2="1146.78" gradientTransform="translate(-413.1 -795.91) rotate(-14.03)" gradientUnits="userSpaceOnUse"><stop offset="0" stop-color="#fdbb16"/><stop offset="1" stop-color="#f06197"/></linearGradient></defs><g id="Layer_2" data-name="Layer 2"><g id="Layer_1-2" data-name="Layer 1"><polygon class="cls-1" points="545.2 212.99 558.81 209.59 507.02 0 239.49 66.27 301.75 317.79 409.96 291.33 448.67 327.61 470.8 276.9 469.68 276.41 569.29 251.52 564.89 231.58 458.95 258.05 442.94 293.47 442.38 294.74 437.52 290.18 414.8 269.32 393.91 274.54 393.85 274.31 317.3 293.44 263.83 81.81 491.47 24.34 533.76 193.59 352.22 239.54 321.48 116.52 455.54 83.02 468.19 133.65 414.51 123.07 369.42 164.08 375.43 188.13 420.66 146.53 496.8 161.4 470.85 57.51 295.98 101.21 336.92 265.04 541.21 213.99 545.2 212.99"/><path class="cls-2" d="M74.62,459.09a38.69,38.69,0,0,1-8.26,12.59,36.13,36.13,0,0,1-11.77,7.9A35.31,35.31,0,0,1,41,482.33,34.26,34.26,0,0,1,31.13,481a32.72,32.72,0,0,1-8-3.58,33.74,33.74,0,0,1-6.48-5.21A46.07,46.07,0,0,1,11.47,466v38.57H0V403.69H11.47v15.49a59.55,59.55,0,0,1,5.29-6.56,33.35,33.35,0,0,1,14.44-9.16A31.87,31.87,0,0,1,41,402.05a36.27,36.27,0,0,1,25.32,10.5,38,38,0,0,1,8.34,12.58,47.62,47.62,0,0,1,0,34ZM63.82,430a29,29,0,0,0-5.88-9.41,25.28,25.28,0,0,0-8.64-6,26.55,26.55,0,0,0-10.42-2.08,26,26,0,0,0-10.36,2.15,29.45,29.45,0,0,0-8.93,6A28,28,0,0,0,13.33,430,31,31,0,0,0,11,442.11a31.54,31.54,0,0,0,2.31,12.23,27.79,27.79,0,0,0,6.26,9.41,29.45,29.45,0,0,0,8.93,6,26,26,0,0,0,10.36,2.14,28,28,0,0,0,10.5-2A24.8,24.8,0,0,0,58,464.12a27.63,27.63,0,0,0,5.8-9.33A34.38,34.38,0,0,0,66,442.26,33.35,33.35,0,0,0,63.82,430Z"/><path class="cls-2" d="M92.49,480.69V372H104V480.69Z"/><path class="cls-2" d="M177.84,403.69h11.32v77H177.84v-13.4a36.26,36.26,0,0,1-10.13,10.65q-6.26,4.38-16.23,4.39A32.47,32.47,0,0,1,139,480.1a25.82,25.82,0,0,1-9.24-6.33A28.1,28.1,0,0,1,124,464a37.14,37.14,0,0,1-2-12.51V403.69h11.47v45q0,10.72,5.51,17t15.79,6.25a24.27,24.27,0,0,0,9.16-1.71,20.67,20.67,0,0,0,7.3-4.91,23.81,23.81,0,0,0,4.84-7.67,26.31,26.31,0,0,0,1.79-9.84Z"/><path class="cls-2" d="M273.24,411.43a29.5,29.5,0,0,1,5.88-4.91,28.64,28.64,0,0,1,7.38-3.28,32.9,32.9,0,0,1,9.16-1.19q13.39,0,21,8.26T324.25,433v47.66H312.79v-45q0-11.18-5.29-17.2t-14.67-6a21.76,21.76,0,0,0-8.2,1.57,19,19,0,0,0-6.77,4.62,22.22,22.22,0,0,0-4.62,7.52,28.16,28.16,0,0,0-1.71,10.13v44.38H260.21V435.41q0-10.87-5.29-16.9t-14.52-6a20,20,0,0,0-8.49,1.79,20.3,20.3,0,0,0-6.78,5.07,24,24,0,0,0-4.54,7.67,27.55,27.55,0,0,0-1.64,9.75v43.94H207.48v-77H219v12.95a63.72,63.72,0,0,1,4.24-5.51,26,26,0,0,1,12-7.89,28.55,28.55,0,0,1,8.64-1.19q9.39,0,15.49,4.39a28.48,28.48,0,0,1,9.24,10.95A48.16,48.16,0,0,1,273.24,411.43Z"/><path class="cls-2" d="M416.3,459.09A38.69,38.69,0,0,1,408,471.68a36.13,36.13,0,0,1-11.77,7.9,35.31,35.31,0,0,1-13.63,2.75,34.26,34.26,0,0,1-9.83-1.34,32.72,32.72,0,0,1-8-3.58,33.74,33.74,0,0,1-6.48-5.21,46.07,46.07,0,0,1-5.14-6.25v14.74H341.68V372h11.47v47.22a59.55,59.55,0,0,1,5.29-6.56,33.35,33.35,0,0,1,14.44-9.16,31.87,31.87,0,0,1,9.76-1.41A36.27,36.27,0,0,1,408,412.55a38,38,0,0,1,8.34,12.58,47.62,47.62,0,0,1,0,34ZM405.5,430a29,29,0,0,0-5.88-9.41,25.28,25.28,0,0,0-8.64-6,26.55,26.55,0,0,0-10.42-2.08,26,26,0,0,0-10.36,2.15,29.45,29.45,0,0,0-8.93,6A28,28,0,0,0,355,430a31,31,0,0,0-2.31,12.15A31.54,31.54,0,0,0,355,454.34a27.79,27.79,0,0,0,6.26,9.41,29.45,29.45,0,0,0,8.93,6,26,26,0,0,0,10.36,2.14,28,28,0,0,0,10.5-2,24.8,24.8,0,0,0,8.64-5.79,27.63,27.63,0,0,0,5.8-9.33,34.38,34.38,0,0,0,2.16-12.53A33.35,33.35,0,0,0,405.5,430Z"/><path class="cls-2" d="M486.68,468a21.31,21.31,0,0,1-6.48,8,29.21,29.21,0,0,1-9.76,4.69,44.39,44.39,0,0,1-12,1.56,55.91,55.91,0,0,1-34.26-12.06l9.69-14.9a53.74,53.74,0,0,0,13,7.15,35.21,35.21,0,0,0,12.14,2.38q4.9,0,7.22-1.63a5.08,5.08,0,0,0,2.31-4.32v-.3a4.3,4.3,0,0,0-1.34-3.13,11.34,11.34,0,0,0-3.65-2.31,55.91,55.91,0,0,0-5.29-1.86c-2-.6-4.07-1.24-6.25-1.94a84.06,84.06,0,0,1-8.42-2.9,30,30,0,0,1-7.67-4.47,21.82,21.82,0,0,1-5.58-6.78,20.52,20.52,0,0,1-2.16-9.83V425a23.42,23.42,0,0,1,8.56-18.77A26.83,26.83,0,0,1,446,401.3a38.45,38.45,0,0,1,11.4-1.64,51.26,51.26,0,0,1,15.42,2.46,57.14,57.14,0,0,1,14.37,6.78l-8.64,15.64a70.43,70.43,0,0,0-11.62-5.44,30.36,30.36,0,0,0-10-2q-4.17,0-6.25,1.57a4.75,4.75,0,0,0-2.09,3.94v.3a3.89,3.89,0,0,0,1.34,2.9,15,15,0,0,0,3.58,2.39,49,49,0,0,0,5.14,2.16c1.93.69,4,1.39,6.18,2.08,2.78.9,5.61,2,8.49,3.21a34.63,34.63,0,0,1,7.74,4.54,22.48,22.48,0,0,1,5.66,6.55,18.5,18.5,0,0,1,2.24,9.38v.3A26.62,26.62,0,0,1,486.68,468Z"/><path class="cls-2" d="M577,457.08a41.19,41.19,0,0,1-9.08,13.19,43,43,0,0,1-13.7,8.93A44.59,44.59,0,0,1,537,482.48a45.21,45.21,0,0,1-17.13-3.2,41.87,41.87,0,0,1-13.63-8.79,40.9,40.9,0,0,1-9-13.11,39.91,39.91,0,0,1-3.28-16.16v-.3a39.94,39.94,0,0,1,3.28-16.16,41.26,41.26,0,0,1,9.08-13.18A43.26,43.26,0,0,1,520,402.64a47.34,47.34,0,0,1,34.4-.07A41.7,41.7,0,0,1,568,411.36a40.7,40.7,0,0,1,9,13.1,40,40,0,0,1,3.28,16.17v.29A39.91,39.91,0,0,1,577,457.08ZM558,440.92a23.66,23.66,0,0,0-1.49-8.41,21.16,21.16,0,0,0-11-11.84,19.88,19.88,0,0,0-8.49-1.79,21.07,21.07,0,0,0-8.72,1.71,19.21,19.21,0,0,0-6.47,4.69,20.63,20.63,0,0,0-4.1,6.93,24.61,24.61,0,0,0-1.42,8.42v.29a23.72,23.72,0,0,0,1.49,8.42,21.35,21.35,0,0,0,10.95,11.84,19.91,19.91,0,0,0,8.57,1.79,20.86,20.86,0,0,0,8.71-1.72,19.21,19.21,0,0,0,6.48-4.69,20.47,20.47,0,0,0,4.09-6.92,24.61,24.61,0,0,0,1.42-8.42Z"/><path class="cls-2" d="M646.27,478.38q-7.44,4.1-19.36,4.1a41.76,41.76,0,0,1-16.61-3.28,40.11,40.11,0,0,1-21.82-22,41.35,41.35,0,0,1-3.13-16v-.3a42.06,42.06,0,0,1,11.77-29.34,40.35,40.35,0,0,1,13.18-8.94,42.71,42.71,0,0,1,16.91-3.27q11.31,0,18.77,3.57a42.07,42.07,0,0,1,13.1,9.83l-13.85,14.9a37.08,37.08,0,0,0-8-6.41,20,20,0,0,0-10.2-2.38,17.57,17.57,0,0,0-7.82,1.71,19.36,19.36,0,0,0-6.11,4.69,21.3,21.3,0,0,0-4,6.93,24.85,24.85,0,0,0-1.41,8.42v.29a25.92,25.92,0,0,0,1.41,8.64,20.38,20.38,0,0,0,4.1,7,19.29,19.29,0,0,0,6.4,4.69A19.59,19.59,0,0,0,628,463a20.41,20.41,0,0,0,9.91-2.31,41.94,41.94,0,0,0,8.41-6.18l13.26,13.4A50.8,50.8,0,0,1,646.27,478.38Z"/><path class="cls-2" d="M667.27,392.07V372h23.84v20.11Zm.6,88.62V400.86h22.64v79.83Z"/><path class="cls-2" d="M751.13,480.69v-8.64a31.52,31.52,0,0,1-10,7.38A32.94,32.94,0,0,1,727,482.18a35.53,35.53,0,0,1-10.65-1.56,25,25,0,0,1-8.71-4.69,22.54,22.54,0,0,1-5.89-7.67,24.21,24.21,0,0,1-2.16-10.51v-.29A25,25,0,0,1,702,446.14a21.79,21.79,0,0,1,6.63-7.9,29.8,29.8,0,0,1,10.12-4.69,50.9,50.9,0,0,1,13-1.56,55.48,55.48,0,0,1,10.65.89,66.06,66.06,0,0,1,8.86,2.38v-1.34q0-7.14-4.32-10.87t-12.81-3.72a53.46,53.46,0,0,0-11.54,1.11,77,77,0,0,0-10.5,3.21l-5.66-17.28a87.86,87.86,0,0,1,13.7-4.62A72.24,72.24,0,0,1,737.43,400q18.62,0,27.11,9.09T773,434.37v46.32Zm.45-32.17a35.31,35.31,0,0,0-14.45-3q-7.3,0-11.47,2.83a9.3,9.3,0,0,0-4.17,8.19v.3a8.36,8.36,0,0,0,3.43,7.15,14.63,14.63,0,0,0,8.93,2.53q8,0,12.89-3.87a12.37,12.37,0,0,0,4.84-10.13Z"/><path class="cls-2" d="M786.13,480.69V372h22.64V480.69Z"/></g></g></svg>