<svg width="88" height="88" viewBox="0 0 88 88" fill="none" xmlns="http://www.w3.org/2000/svg">
<circle cx="44" cy="44" r="44" fill="black"/>
<g clip-path="url(#clip0_39_168)">
<path d="M51.9867 44.367C52.359 44.367 52.6606 44.0653 52.6606 43.6932V38.8269C52.6606 38.5461 52.4864 38.2946 52.2234 38.1961L44.2367 35.2011C44.0841 35.1439 43.9162 35.1439 43.7634 35.2011L35.7768 38.1961C35.5138 38.2947 35.3396 38.5461 35.3396 38.8269V40.9904C35.3396 41.3625 35.6412 41.6642 36.0134 41.6642C36.3857 41.6642 36.6873 41.3625 36.6873 40.9904V39.7993L43.3263 42.2889V51.1959L36.6873 48.7063V44.1425C36.6873 43.7703 36.3857 43.4686 36.0134 43.4686C35.6412 43.4686 35.3396 43.7703 35.3396 44.1425V49.1734C35.3396 49.4542 35.5138 49.7057 35.7768 49.8042L43.7634 52.7992C43.7635 52.7986 43.7637 52.7979 43.7638 52.7973C43.8397 52.8258 43.9195 52.842 44.0002 52.842C44.0799 52.842 44.16 52.8279 44.2367 52.7991L52.2234 49.8041C52.4864 49.7055 52.6606 49.4541 52.6606 49.1733V46.8339C52.6606 46.4618 52.359 46.1601 51.9867 46.1601C51.6145 46.1601 51.3129 46.4618 51.3129 46.8339V48.7063L44.6739 51.1959V42.2889L51.3129 39.7993V43.6932C51.3129 44.0654 51.6145 44.367 51.9867 44.367ZM44.0001 41.1023L37.9326 38.827L44.0001 36.5517L50.0676 38.827L44.0001 41.1023Z" fill="#6665DD"/>
<path d="M43.3262 27.7257V32.5647C43.3262 32.9368 43.6278 33.2385 44.0001 33.2385C44.3723 33.2385 44.6739 32.9368 44.6739 32.5647V27.7257C46.225 27.4122 47.3966 26.0387 47.3966 24.3965C47.3966 22.5237 45.8729 21 44.0001 21C42.1272 21 40.6035 22.5237 40.6035 24.3965C40.6035 26.0387 41.7751 27.4122 43.3262 27.7257ZM44.0001 22.3477C45.1298 22.3477 46.0489 23.2668 46.0489 24.3965C46.0489 25.5263 45.1298 26.4454 44.0001 26.4454C42.8704 26.4454 41.9512 25.5263 41.9512 24.3965C41.9512 23.2668 42.8704 22.3477 44.0001 22.3477Z" fill="#6665DD"/>
<path d="M56.9632 52.2961C55.9189 52.2961 54.9538 52.6408 54.1754 53.2224L52.5624 51.6095C52.2992 51.3463 51.8726 51.3463 51.6095 51.6095C51.3463 51.8726 51.3463 52.2993 51.6095 52.5624L53.2225 54.1753C52.6409 54.9537 52.2961 55.9189 52.2961 56.9631C52.2961 59.5366 54.3899 61.6302 56.9633 61.6302C59.5367 61.6302 61.6304 59.5366 61.6304 56.9631C61.6304 54.3896 59.5367 52.2961 56.9632 52.2961ZM56.9632 60.2826C55.1328 60.2826 53.6437 58.7935 53.6437 56.9632C53.6437 55.1329 55.1328 53.6437 56.9632 53.6437C58.7936 53.6437 60.2826 55.1329 60.2826 56.9632C60.2826 58.7935 58.7936 60.2826 56.9632 60.2826Z" fill="#6665DD"/>
<path d="M31.0367 35.7038C32.0809 35.7038 33.046 35.359 33.8244 34.7774L35.4374 36.3904C35.569 36.5219 35.7415 36.5877 35.9139 36.5877C36.0863 36.5877 36.2588 36.522 36.3904 36.3904C36.6536 36.1272 36.6536 35.7005 36.3904 35.4375L34.7775 33.8245C35.3591 33.0461 35.7039 32.0809 35.7039 31.0367C35.7039 28.4633 33.6101 26.3696 31.0367 26.3696C28.4633 26.3696 26.3696 28.4633 26.3696 31.0367C26.3696 33.6102 28.4632 35.7038 31.0367 35.7038ZM31.0367 27.7172C32.867 27.7172 34.3561 29.2064 34.3561 31.0367C34.3561 32.8669 32.867 34.3561 31.0367 34.3561C29.2063 34.3561 27.7172 32.8669 27.7172 31.0367C27.7172 29.2064 29.2063 27.7172 31.0367 27.7172Z" fill="#6665DD"/>
<path d="M44.6739 60.2745V55.4355C44.6739 55.0634 44.3723 54.7617 44.0001 54.7617C43.6278 54.7617 43.3262 55.0634 43.3262 55.4355V60.2745C41.7751 60.588 40.6035 61.9615 40.6035 63.6037C40.6035 65.4766 42.1272 67.0002 44.0001 67.0002C45.8729 67.0002 47.3966 65.4766 47.3966 63.6037C47.3966 61.9615 46.225 60.588 44.6739 60.2745ZM44.0001 65.6526C42.8704 65.6526 41.9512 64.7335 41.9512 63.6037C41.9512 62.4739 42.8704 61.5548 44.0001 61.5548C45.1298 61.5548 46.0489 62.4739 46.0489 63.6037C46.0489 64.7335 45.1298 65.6526 44.0001 65.6526Z" fill="#6665DD"/>
<path d="M63.6034 40.6035C61.9613 40.6035 60.5878 41.7751 60.2743 43.3262H55.4353C55.0631 43.3262 54.7615 43.6279 54.7615 44.0001C54.7615 44.3722 55.0631 44.6739 55.4353 44.6739H60.2743C60.5878 46.225 61.9613 47.3966 63.6034 47.3966C65.4763 47.3966 67 45.8729 67 44.0001C67 42.1272 65.4763 40.6035 63.6034 40.6035ZM63.6034 46.0489C62.4738 46.0489 61.5546 45.1298 61.5546 44.0001C61.5546 42.8703 62.4737 41.9512 63.6034 41.9512C64.7332 41.9512 65.6523 42.8703 65.6523 44.0001C65.6523 45.1298 64.7332 46.0489 63.6034 46.0489Z" fill="#6665DD"/>
<path d="M27.7257 44.6739H32.5647C32.9369 44.6739 33.2385 44.3722 33.2385 44.0001C33.2385 43.6279 32.9369 43.3262 32.5647 43.3262H27.7257C27.4122 41.7751 26.0387 40.6035 24.3965 40.6035C22.5237 40.6035 21 42.1272 21 44.0001C21 45.8729 22.5237 47.3966 24.3965 47.3966C26.0387 47.3966 27.4122 46.225 27.7257 44.6739ZM24.3965 46.0489C23.2668 46.0489 22.3477 45.1298 22.3477 44.0001C22.3477 42.8703 23.2668 41.9512 24.3965 41.9512C25.5263 41.9512 26.4453 42.8703 26.4453 44.0001C26.4453 45.1298 25.5262 46.0489 24.3965 46.0489Z" fill="#6665DD"/>
<path d="M52.086 36.5878C52.2584 36.5878 52.4309 36.5221 52.5625 36.3904L54.1755 34.7775C54.9539 35.3591 55.9191 35.7039 56.9633 35.7039C59.5367 35.7039 61.6304 33.6102 61.6304 31.0367C61.6304 28.4633 59.5367 26.3696 56.9633 26.3696C54.3899 26.3696 52.2961 28.4633 52.2961 31.0367C52.2961 32.081 52.6409 33.0461 53.2225 33.8245L51.6095 35.4375C51.3463 35.7006 51.3463 36.1273 51.6095 36.3904C51.7411 36.5221 51.9136 36.5878 52.086 36.5878ZM56.9633 27.7173C58.7936 27.7173 60.2827 29.2064 60.2827 31.0367C60.2827 32.867 58.7936 34.3562 56.9633 34.3562C55.1329 34.3562 53.6438 32.867 53.6438 31.0367C53.6438 29.2064 55.1329 27.7173 56.9633 27.7173Z" fill="#6665DD"/>
<path d="M35.4375 51.6095L33.8245 53.2224C33.0461 52.6408 32.0809 52.296 31.0367 52.296C28.4633 52.296 26.3696 54.3897 26.3696 56.9632C26.3696 59.5366 28.4633 61.6303 31.0367 61.6303C33.6101 61.6303 35.7039 59.5366 35.7039 56.9632C35.7039 55.9189 35.3591 54.9538 34.7775 54.1754L36.3904 52.5624C36.6536 52.2993 36.6536 51.8726 36.3904 51.6096C36.1273 51.3463 35.7007 51.3463 35.4375 51.6095ZM31.0367 60.2826C29.2064 60.2826 27.7173 58.7935 27.7173 56.9632C27.7173 55.1329 29.2064 53.6437 31.0367 53.6437C32.8671 53.6437 34.3562 55.1329 34.3562 56.9632C34.3562 58.7935 32.8671 60.2826 31.0367 60.2826Z" fill="#6665DD"/>
</g>
<defs>
<clipPath id="clip0_39_168">
<rect width="46" height="46" fill="white" transform="translate(21 21)"/>
</clipPath>
</defs>
</svg>
