<svg width="88" height="88" viewBox="0 0 88 88" fill="none" xmlns="http://www.w3.org/2000/svg">
<circle cx="44" cy="44" r="44" fill="black"/>
<g clip-path="url(#clip0_39_155)">
<path d="M55.6711 34.7494V27.9817C55.6711 26.8795 54.7745 25.9829 53.6724 25.9829H52.6474C51.5453 25.9829 50.6486 26.8795 50.6486 27.9817V28.4645L42.4099 32.8973L24.8339 33.5816C22.6841 33.6651 21 35.416 21 37.5676V44.9687C21 47.1201 22.6841 48.871 24.8339 48.9546L27.7344 49.0676L30.3848 52.7264V54.9204C30.3848 55.2932 30.6869 55.5954 31.0598 55.5954C31.4326 55.5954 31.7347 55.2932 31.7347 54.9204V52.5076C31.7347 52.3654 31.6898 52.2268 31.6064 52.1117L29.4497 49.1344L34.8464 49.3445V60.0287C34.8464 60.3805 34.5601 60.6669 34.2082 60.6669H32.3729C32.021 60.6669 31.7347 60.3805 31.7347 60.0287V57.7968C31.7347 57.424 31.4326 57.1219 31.0598 57.1219C30.6869 57.1219 30.3848 57.424 30.3848 57.7968V60.0287C30.3848 61.125 31.2766 62.0168 32.3729 62.0168H34.2082C35.3045 62.0168 36.1964 61.125 36.1964 60.0287V53.0373H36.3836C38.3444 53.0373 39.949 51.4861 40.036 49.5465L42.41 49.6389L50.6487 54.0717V54.5546C50.6487 55.6566 51.5454 56.5533 52.6475 56.5533H53.6725C54.7746 56.5533 55.6712 55.6566 55.6712 54.5546V47.7868C58.1567 46.5726 59.7394 44.0621 59.7394 41.268C59.7393 38.4739 58.1566 35.9635 55.6711 34.7494ZM22.3499 44.9687V37.5676C22.3499 36.1442 23.4641 34.9857 24.8865 34.9305L29.7074 34.7428V47.7934L24.8865 47.6058C23.4641 47.5504 22.3499 46.392 22.3499 44.9687ZM36.3836 51.6874H36.1964V49.397L38.6875 49.494C38.6281 50.7135 37.6175 51.6874 36.3836 51.6874ZM42.912 48.3762C42.8215 48.3275 42.7212 48.3 42.6185 48.2961L34.0518 47.9625V39.6251C34.0518 39.2523 33.7496 38.9502 33.3768 38.9502C33.0039 38.9502 32.7018 39.2523 32.7018 39.6251V47.91L31.0574 47.846V34.6903L32.7018 34.6263V36.7488C32.7018 37.1216 33.0039 37.4237 33.3768 37.4237C33.7496 37.4237 34.0518 37.1216 34.0518 36.7488V34.5737L42.6185 34.2402C42.7212 34.2363 42.8215 34.2088 42.912 34.1601L50.6487 29.9974V52.5388L42.912 48.3762ZM53.6724 55.2034H52.6474C52.2896 55.2034 51.9986 54.9124 51.9986 54.5546C51.9986 54.5546 51.9986 53.6658 51.9986 53.664V27.9816C51.9986 27.6238 52.2896 27.3328 52.6474 27.3328H53.6724C54.0301 27.3328 54.3212 27.6238 54.3212 27.9816V54.5546C54.3212 54.9123 54.0301 55.2034 53.6724 55.2034ZM55.6711 46.2415V36.2946C57.3496 37.3677 58.3894 39.2247 58.3894 41.268C58.3894 43.3113 57.3496 45.1684 55.6711 46.2415Z" fill="#5DA271"/>
<path d="M66.3251 40.5933H63.6225C63.2496 40.5933 62.9475 40.8954 62.9475 41.2682C62.9475 41.6411 63.2496 41.9432 63.6225 41.9432H66.3251C66.6979 41.9432 67 41.6411 67 41.2682C67 40.8954 66.6978 40.5933 66.3251 40.5933Z" fill="#5DA271"/>
<path d="M62.0643 36.4491C62.1853 36.4491 62.3077 36.4166 62.4182 36.3484L64.7182 34.9291C65.0354 34.7333 65.1339 34.3175 64.9381 34.0003C64.7423 33.6829 64.3264 33.5847 64.0093 33.7803L61.7093 35.1996C61.392 35.3955 61.2936 35.8113 61.4893 36.1285C61.6168 36.3352 61.838 36.4491 62.0643 36.4491Z" fill="#5DA271"/>
<path d="M64.718 47.607L62.4179 46.1877C62.1007 45.9917 61.6848 46.0903 61.4891 46.4076C61.2933 46.7248 61.3918 47.1407 61.709 47.3365L64.0091 48.7558C64.1196 48.824 64.242 48.8564 64.3629 48.8564C64.5893 48.8564 64.8104 48.7426 64.938 48.5358C65.1336 48.2186 65.0353 47.8028 64.718 47.607Z" fill="#5DA271"/>
</g>
<defs>
<clipPath id="clip0_39_155">
<rect width="46" height="46" fill="white" transform="translate(21 21)"/>
</clipPath>
</defs>
</svg>
