<svg width="88" height="88" viewBox="0 0 88 88" fill="none" xmlns="http://www.w3.org/2000/svg">
<circle cx="44" cy="44" r="44" fill="black"/>
<g clip-path="url(#clip0_39_141)">
<path d="M30.6827 48.1926C30.8473 48.1926 31.0118 48.1576 31.165 48.0877C34.7032 46.4738 35.2316 44.6632 35.2316 43.7276C35.2316 42.2736 34.0845 41.1348 32.6202 41.1348C31.7562 41.1348 31.104 41.42 30.6827 41.6872C30.2613 41.4199 29.6092 41.1348 28.7452 41.1348C27.2808 41.1348 26.1338 42.2737 26.1338 43.7276C26.1338 44.6632 26.6621 46.4739 30.2002 48.0877C30.3535 48.1576 30.5182 48.1926 30.6827 48.1926ZM27.4816 43.7275C27.4816 43.1239 27.9245 42.4825 28.7452 42.4825C29.3419 42.4825 29.7721 42.6931 30.0278 42.8698L30.0281 42.8699C30.4197 43.1403 30.9458 43.1402 31.3374 42.8698C31.5932 42.6931 32.0233 42.4825 32.6201 42.4825C33.4407 42.4825 33.8836 43.124 33.8836 43.7275C33.8836 44.756 32.7183 45.8828 30.6826 46.8259C28.6471 45.8829 27.4816 44.7561 27.4816 43.7275Z" fill="#FDBB16"/>
<path d="M51.1401 27.7791L40.4318 29.0884C40.0624 29.1335 39.7995 29.4697 39.8447 29.8391C39.8864 30.1808 40.177 30.4313 40.5127 30.4313C40.5401 30.4313 40.5676 30.4296 40.5954 30.4262L51.3037 29.1169C51.6731 29.0718 51.936 28.7356 51.8908 28.3662C51.8455 27.9967 51.5088 27.7332 51.1401 27.7791Z" fill="#FDBB16"/>
<path d="M66.8428 37.5482C66.655 37.1466 66.3219 36.8421 65.9051 36.6909L57.794 33.7487L57.2837 29.5744C57.2385 29.2049 56.9016 28.9416 56.533 28.9872C56.1636 29.0324 55.9007 29.3685 55.9459 29.7379L56.3732 33.2333L51.7382 31.552C51.3213 31.4009 50.8706 31.421 50.4689 31.6088C50.1401 31.7626 49.8763 32.0136 49.7086 32.3282L40.9588 33.3981C40.5894 33.4432 40.3265 33.7794 40.3717 34.1488C40.4135 34.4905 40.7041 34.741 41.0398 34.741C41.0671 34.741 41.0947 34.7393 41.1224 34.7359L49.1745 33.7513L48.0296 36.9075L41.4859 37.7076C41.1165 37.7527 40.8536 38.0889 40.8988 38.4583C40.9406 38.8 41.2312 39.0505 41.5669 39.0505C41.5942 39.0505 41.6218 39.0488 41.6495 39.0454L47.5143 38.3283C47.2586 39.0329 46.5875 40.8832 46.3694 41.4846L42.0129 42.0172C41.6435 42.0623 41.3806 42.3985 41.4258 42.7679C41.4676 43.1096 41.7582 43.3601 42.0939 43.3601C42.1212 43.3601 42.1488 43.3584 42.1765 43.355L45.8541 42.9054L44.7092 46.0616L42.54 46.3268C42.1706 46.372 41.9077 46.7081 41.9529 47.0775C41.9947 47.4192 42.2853 47.6697 42.621 47.6697C42.6483 47.6697 42.6759 47.668 42.7036 47.6646L44.1939 47.4824L43.9246 48.225C43.9173 48.2451 43.9104 48.2654 43.9039 48.2858H38.2134L35.5378 26.4072C35.5333 26.3705 35.5473 26.3436 35.5599 26.3275C35.5726 26.3114 35.5953 26.2913 35.632 26.2867L55.1234 23.9034C55.1603 23.8993 55.187 23.913 55.2032 23.9256C55.2193 23.9382 55.2394 23.961 55.2439 23.9977L55.6271 27.1318C55.6723 27.5013 56.0089 27.7641 56.3778 27.7189C56.7472 27.6738 57.0101 27.3377 56.9649 26.9683L56.5817 23.8343C56.5346 23.4482 56.3399 23.1036 56.0335 22.864C55.7272 22.6244 55.3463 22.5185 54.9598 22.5657L35.4685 24.9489C35.0824 24.9961 34.7379 25.1908 34.4983 25.4971C34.2587 25.8035 34.1526 26.1849 34.2 26.5708L35.311 35.6564H22.8135C21.8136 35.6565 21 36.4699 21 37.47V47.2202C21 47.5925 21.3016 47.8941 21.6739 47.8941C22.0462 47.8941 22.3478 47.5925 22.3478 47.2202V37.47C22.3478 37.2132 22.5567 37.0043 22.8135 37.0043H35.4757L36.8552 48.2861H34.5215C33.5155 48.2861 32.6969 49.1046 32.6969 50.1107V52.3733H22.8135C22.5568 52.3733 22.3478 52.1644 22.3478 51.9076V49.826C22.3478 49.4537 22.0462 49.1521 21.6739 49.1521C21.3016 49.1521 21 49.4537 21 49.826V51.9076C21 52.9076 21.8136 53.7211 22.8135 53.7211H32.697V63.6204C32.697 64.6264 33.5155 65.445 34.5216 65.445H53.4851C54.4911 65.445 55.3097 64.6265 55.3097 63.6204V60.7585C55.3097 60.3862 55.008 60.0846 54.6358 60.0846C54.2635 60.0846 53.9618 60.3862 53.9618 60.7585V63.6204C53.9618 63.8833 53.748 64.0972 53.4851 64.0972H34.5215C34.2586 64.0972 34.0447 63.8833 34.0447 63.6204V50.1106C34.0447 49.8477 34.2586 49.6338 34.5215 49.6338H53.485C53.7479 49.6338 53.9618 49.8477 53.9618 50.1106V58.1526C53.9618 58.5248 54.2634 58.8265 54.6357 58.8265C55.0079 58.8265 55.3096 58.5248 55.3096 58.1526V54.1215L59.0855 55.4912C59.5021 55.6422 59.953 55.6223 60.3548 55.4343C60.7565 55.2464 61.0609 54.9134 61.2122 54.4966C61.2614 54.3608 66.748 39.2351 66.8995 38.8175C67.0508 38.4008 67.0306 37.9499 66.8428 37.5482ZM59.9451 54.0371C59.9067 54.1429 59.8276 54.193 59.7839 54.2134C59.7402 54.234 59.6511 54.2627 59.5452 54.2241L55.3096 52.6878V50.1107C55.3096 49.1047 54.4911 48.2861 53.485 48.2861H45.3359L47.9584 41.0562C52.8573 40.3804 54.5166 42.049 56.43 43.9731C57.8228 45.3738 59.3858 46.9456 62.3273 47.47L59.9451 54.0371ZM65.6325 38.3579L62.7946 46.1814C60.1244 45.7767 58.7916 44.4366 57.3858 43.0227C55.6874 41.3146 53.941 39.5581 49.9986 39.5581C49.5232 39.5581 49.0159 39.5837 48.4729 39.6379L50.8785 33.0061C50.9169 32.9003 50.996 32.8502 51.0397 32.8298C51.0835 32.8093 51.1729 32.7809 51.2785 32.8191L65.4455 37.958C65.5512 37.9963 65.6014 38.0755 65.6219 38.1193C65.6424 38.163 65.6709 38.2522 65.6325 38.3579Z" fill="#FDBB16"/>
<path d="M61.7933 38.0964C60.7365 37.7132 59.5653 38.2609 59.182 39.3175C58.9965 39.8293 59.0212 40.3827 59.2518 40.8759C59.4824 41.3692 59.8913 41.743 60.4031 41.9286C60.63 42.0109 60.865 42.0519 61.0994 42.0519C61.3937 42.0519 61.687 41.9873 61.9616 41.859C62.4548 41.6283 62.8286 41.2195 63.0143 40.7076C63.3976 39.651 62.8498 38.4796 61.7933 38.0964ZM61.7473 40.248C61.6845 40.4213 61.5579 40.5599 61.3908 40.638C61.2237 40.7162 61.036 40.7245 60.8629 40.6616C60.6895 40.5987 60.5509 40.4721 60.4728 40.3051C60.3947 40.138 60.3863 39.9505 60.4492 39.7772C60.5509 39.4967 60.8165 39.3221 61.0988 39.3221C61.1768 39.3221 61.2561 39.3354 61.3336 39.3636C61.6916 39.4932 61.8772 39.89 61.7473 40.248Z" fill="#FDBB16"/>
<path d="M42.9438 53.2366C42.5198 52.9494 41.9753 52.9199 41.5225 53.1599C41.07 53.3999 40.7888 53.8673 40.7888 54.3795V59.3511C40.7888 59.8634 41.07 60.3307 41.5226 60.5707C41.9779 60.8123 42.5225 60.7795 42.9439 60.4939L46.6116 58.0082C46.9912 57.751 47.2177 57.3238 47.2177 56.8653C47.2177 56.4069 46.9912 55.9797 46.6117 55.7225L42.9438 53.2366ZM45.8555 56.8924L42.1878 59.3781C42.1788 59.3841 42.1713 59.3891 42.154 59.38C42.1367 59.3708 42.1367 59.3617 42.1367 59.3512V54.3795C42.1367 54.369 42.1367 54.3598 42.154 54.3507C42.1608 54.347 42.1662 54.3456 42.1707 54.3456C42.1776 54.3456 42.1825 54.3489 42.1877 54.3524L45.8555 56.8382C45.8556 56.8383 45.8556 56.8383 45.8556 56.8383C45.8616 56.8424 45.8698 56.848 45.8698 56.8653C45.8698 56.8827 45.8617 56.8882 45.8555 56.8924Z" fill="#FDBB16"/>
</g>
<defs>
<clipPath id="clip0_39_141">
<rect width="46" height="46" fill="white" transform="translate(21 21)"/>
</clipPath>
</defs>
</svg>
