<svg width="88" height="88" viewBox="0 0 88 88" fill="none" xmlns="http://www.w3.org/2000/svg">
<circle cx="44" cy="44" r="44" fill="black"/>
<g clip-path="url(#clip0_39_127)">
<path d="M34.6108 35.3774C34.6108 34.8769 34.2051 34.4712 33.7046 34.4712C33.2041 34.4712 32.7983 34.8769 32.7983 35.3774C32.7983 35.878 33.2041 36.2837 33.7046 36.2837C34.2051 36.2837 34.6108 35.878 34.6108 35.3774Z" fill="#F06197"/>
<path d="M37.4828 36.2738C37.9768 36.1937 38.3124 35.7284 38.2323 35.2344C38.1522 34.7404 37.6868 34.4048 37.1928 34.4849C36.6988 34.565 36.3633 35.0304 36.4433 35.5244C36.5234 36.0184 36.9888 36.3539 37.4828 36.2738Z" fill="#F06197"/>
<path d="M41.12 36.2743C41.614 36.1942 41.9496 35.7288 41.8695 35.2348C41.7894 34.7408 41.324 34.4053 40.83 34.4854C40.336 34.5655 40.0005 35.0308 40.0805 35.5248C40.1606 36.0188 40.626 36.3544 41.12 36.2743Z" fill="#F06197"/>
<path d="M66.3263 50.6246C66.6984 50.6246 67 50.323 67 49.951V38.3788C67 36.8521 65.758 35.6101 64.2314 35.6101H53.6837V25.96C53.6837 24.4334 52.4417 23.1914 50.9151 23.1914H30.6588C30.2868 23.1914 29.9852 23.493 29.9852 23.8651C29.9852 24.2371 30.2867 24.5387 30.6588 24.5387H50.9151C51.6988 24.5387 52.3364 25.1763 52.3364 25.96V44.795C52.3364 45.5788 51.6988 46.2164 50.9151 46.2164H32.505C32.1988 46.2164 31.9042 46.3285 31.6756 46.5321L26.7489 50.9174V47.4639C26.7489 46.776 26.1893 46.2164 25.5014 46.2164H23.7686C22.9849 46.2164 22.3473 45.5788 22.3473 44.795V25.96C22.3473 25.1763 22.985 24.5387 23.7686 24.5387H27.5107C27.8827 24.5387 28.1844 24.2371 28.1844 23.8651C28.1844 23.493 27.8828 23.1914 27.5107 23.1914H23.7686C22.242 23.1914 21 24.4334 21 25.96V44.795C21 46.3217 22.242 47.5637 23.7686 47.5637H25.4016V51.1397C25.4016 51.6379 25.684 52.0741 26.1385 52.278C26.3057 52.353 26.4806 52.3896 26.6538 52.3896C26.9514 52.3896 27.2434 52.281 27.4786 52.0716L32.5429 47.5637H34.3163V57.2139C34.3163 58.7405 35.5583 59.9825 37.0849 59.9825H55.4571L60.5213 64.4903C60.7566 64.6998 61.0485 64.8085 61.3463 64.8085C61.5193 64.8085 61.6945 64.7717 61.8616 64.6968C62.3162 64.4929 62.5985 64.0567 62.5985 63.5586V59.9825H64.2315C65.7581 59.9825 67.0001 58.7405 67.0001 57.2139V53.0802C67.0001 52.7081 66.6986 52.4065 66.3264 52.4065C65.9543 52.4065 65.6528 52.7081 65.6528 53.0802V57.2139C65.6528 57.9976 65.0152 58.6352 64.2314 58.6352H62.4987C61.8108 58.6352 61.2512 59.1948 61.2512 59.8828V63.3364L56.3243 58.9507C56.0956 58.7473 55.8011 58.6352 55.4951 58.6352H37.0848C36.3011 58.6352 35.6635 57.9976 35.6635 57.2139V47.5637H50.9152C52.4418 47.5637 53.6838 46.3217 53.6838 44.795V36.9574H64.2315C65.0152 36.9574 65.6529 37.595 65.6529 38.3787V49.9509C65.6528 50.323 65.9543 50.6246 66.3263 50.6246Z" fill="#F06197"/>
</g>
<defs>
<clipPath id="clip0_39_127">
<rect width="46" height="46" fill="white" transform="translate(21 21)"/>
</clipPath>
</defs>
</svg>
