<svg width="88" height="88" viewBox="0 0 88 88" fill="none" xmlns="http://www.w3.org/2000/svg">
<circle cx="44" cy="44" r="44" fill="black"/>
<g clip-path="url(#clip0_41_321)">
<path d="M60.5346 21H58.5568C57.6875 21 57.6875 22.3479 58.5568 22.3479H60.5346C62.577 22.3479 64.2387 24.0036 64.2387 26.0386V41.6352C64.2387 43.6704 62.5771 45.3261 60.5346 45.3261H58.2915C58.1435 45.3261 57.9996 45.3748 57.882 45.4648L53.766 48.6132V46C53.766 45.6278 53.4644 45.3261 53.0921 45.3261H44.89C44.2183 45.3261 43.5728 45.1488 43.0034 44.8118V37.2465C43.0034 35.8295 42.2817 34.5775 41.1857 33.8368V26.0386C41.1857 24.0036 42.8474 22.3479 44.89 22.3479H54.3336C55.2028 22.3479 55.2028 21 54.3336 21H44.89C42.1042 21 39.8379 23.2603 39.8379 26.0386V33.2445C39.5293 33.1708 39.2078 33.1307 38.8769 33.1307H26.54C24.2647 33.1307 22.4136 34.977 22.4136 37.2465V38.7018C22.4136 39.5711 23.7614 39.5711 23.7614 38.7018V37.2465C23.7614 35.7202 25.0078 34.4785 26.54 34.4785H38.877C40.4092 34.4785 41.6557 35.7202 41.6557 37.2465V45.0801C41.6476 45.1396 41.6479 45.1995 41.6557 45.2585V49.5458C41.6557 49.6305 41.6506 49.7149 41.6429 49.7988H40.2531C38.7217 49.7988 37.445 50.9041 37.1803 52.3569C37.119 52.38 37.0601 52.4122 37.0056 52.4543L33.9913 54.7816V52.9877C33.9913 52.6156 33.6897 52.3138 33.3174 52.3138H26.54C25.0078 52.3138 23.7614 51.0721 23.7614 49.5458V42.7453C23.7614 41.8761 22.4136 41.8761 22.4136 42.7453V49.5459C22.4136 51.8154 24.2647 53.6618 26.54 53.6618H32.6436V56.1535C32.6436 56.6941 33.3 57.0184 33.7294 56.687L37.1291 54.062V61.6436C37.1291 63.3622 38.5306 64.7601 40.2532 64.7601H44.3888V66.3327C44.3888 66.8731 45.0453 67.1978 45.4746 66.8662L48.2023 64.7601H49.0081C50.7307 64.7601 52.1322 63.3621 52.1322 61.6436V60.4471C52.1322 59.5778 50.7843 59.5778 50.7843 60.4471V61.6436C50.7843 62.619 49.9876 63.4123 49.0081 63.4123H47.9723C47.8233 63.4123 47.6784 63.4617 47.5605 63.5527L45.7366 64.9609V64.0861C45.7366 63.7139 45.435 63.4122 45.0627 63.4122H40.2531C39.2738 63.4122 38.4769 62.6188 38.4769 61.6436V52.9154C38.4769 51.9401 39.2737 51.1468 40.2531 51.1468H49.0081C49.9875 51.1468 50.7843 51.9402 50.7843 52.9154V56.2238C50.7843 57.0931 52.1322 57.0931 52.1322 56.2238V52.9155C52.1322 51.197 50.7307 49.799 49.0081 49.799H42.9958C43.0009 49.7148 43.0035 46.3109 43.0035 46.3109C43.5978 46.5499 44.2348 46.674 44.8901 46.674H52.4183V49.9772C52.4183 50.5164 53.0719 50.8411 53.5017 50.5125L58.5198 46.674H60.5347C63.3203 46.674 65.5867 44.4137 65.5867 41.6353V26.0386C65.5866 23.2603 63.3202 21 60.5346 21V21Z" fill="#C6DDF0"/>
<path d="M54.3962 25.9792C53.5405 25.7608 52.6685 26.4369 52.6685 27.3211C52.6685 28.2871 52.3164 29.2181 51.6776 29.9421L49.8208 32.0432C49.7006 31.8587 49.4929 31.7366 49.2563 31.7366H45.6314C45.2592 31.7366 44.9575 32.0384 44.9575 32.4105V40.5664C44.9575 40.9386 45.2592 41.2403 45.6314 41.2403H49.2563C49.5286 41.2403 49.7626 41.0785 49.8689 40.8461C50.6028 41.2945 51.4532 41.5369 52.3184 41.5369H58.7245C59.7034 41.5369 60.5109 40.6875 60.465 39.7111C60.4446 39.2787 60.4669 33.4728 60.4669 33.3439C60.4669 32.3831 59.6852 31.6014 58.7264 31.6014L55.3952 31.5914L55.5331 31.2648C56.1635 29.772 56.0597 28.041 55.2558 26.6341C55.0682 26.3054 54.7628 26.073 54.3962 25.9792C54.7628 26.073 54.0294 25.8856 54.3962 25.9792C54.7628 26.073 53.5405 25.7608 54.3962 25.9792ZM48.5823 39.8925H46.3054V33.0845H48.5823V39.8925ZM58.7245 32.9491C58.9421 32.9491 59.1191 33.1262 59.1191 33.3438C59.1191 33.472 59.1178 33.82 59.116 34.2919C59.106 36.897 59.0994 39.3643 59.1186 39.7744C59.1256 39.9224 59.0536 40.0211 59.0101 40.0667C58.9348 40.1456 58.8334 40.189 58.7245 40.189H52.3184C51.5548 40.189 50.8075 39.9244 50.2139 39.4439L49.9302 39.2142V33.9548L52.688 30.8342C53.5446 29.8634 54.0163 28.6157 54.0163 27.321C54.0163 27.2829 54.0684 27.273 54.0856 27.3026C54.6824 28.347 54.7594 29.6321 54.2915 30.7403L53.7596 32C53.6718 32.2078 53.6939 32.4457 53.8182 32.6338C53.9427 32.822 54.1529 32.9354 54.3784 32.9361L58.7245 32.9491Z" fill="#C6DDF0"/>
<path d="M28.1842 44.4075C27.8119 44.4075 27.5103 44.7093 27.5103 45.0815C27.5103 45.4536 27.8119 45.7554 28.1842 45.7554H30.1707L29.7996 47.9999C29.7389 48.3671 29.9874 48.714 30.3546 48.7748C30.3919 48.781 30.4288 48.7839 30.4653 48.7839C30.7891 48.7839 31.0748 48.5498 31.1294 48.2198L31.5368 45.7555H33.1626L32.7915 48C32.7308 48.3672 32.9793 48.7141 33.3464 48.7748C33.3837 48.781 33.4207 48.784 33.4572 48.784C33.781 48.784 34.0667 48.5499 34.1213 48.2199L34.5287 45.7556H37.2328C37.605 45.7556 37.9067 45.4538 37.9067 45.0816C37.9067 44.7095 37.605 44.4077 37.2328 44.4077H34.7515L35.0234 42.7637H37.2328C37.605 42.7637 37.9067 42.462 37.9067 42.0898C37.9067 41.7176 37.605 41.4158 37.2328 41.4158H35.2462L35.6173 39.1713C35.6781 38.8042 35.4295 38.4572 35.0624 38.3965C34.6947 38.3356 34.3483 38.5843 34.2875 38.9514L33.8801 41.4158H32.2543L32.6254 39.1712C32.6862 38.8041 32.4376 38.4571 32.0705 38.3964C31.7024 38.3355 31.3565 38.5842 31.2956 38.9513L30.8882 41.4157H28.1842C27.8119 41.4157 27.5103 41.7174 27.5103 42.0896C27.5103 42.4618 27.8119 42.7635 28.1842 42.7635H30.6654L30.3936 44.4075H28.1842ZM32.0316 42.7635H33.6574L33.3855 44.4075H31.7598L32.0316 42.7635Z" fill="#C6DDF0"/>
<path d="M44.6224 54.6241C44.0782 54.1761 43.3543 53.9993 42.628 54.1759C41.6974 54.4019 40.7583 55.2719 40.7583 56.7059C40.7583 57.5985 41.084 58.3732 41.7541 59.0745C42.3014 59.6473 43.0913 60.192 44.3149 60.8408C44.4137 60.8932 44.5221 60.9193 44.6306 60.9193C44.739 60.9193 44.8475 60.8932 44.9463 60.8408C47.0811 59.709 48.5028 58.5728 48.5028 56.7059C48.5028 55.2641 47.5304 54.403 46.5666 54.1892C45.8425 54.0286 45.1405 54.1991 44.6224 54.6241ZM47.1548 56.7059C47.1548 57.7129 46.4869 58.4575 44.6305 59.4794C42.7741 58.4574 42.1061 57.7128 42.1061 56.7059C42.1061 55.9567 42.5399 55.5843 42.946 55.4857C43.0208 55.4675 43.101 55.4573 43.1834 55.4573C43.4888 55.4573 43.8246 55.5983 44.0316 55.9997C44.1496 56.2282 44.3881 56.3698 44.6439 56.3645C44.9008 56.3593 45.1325 56.2086 45.2412 55.9757C45.4592 55.5082 45.9179 55.426 46.2744 55.5052C46.7002 55.5994 47.1548 55.9645 47.1548 56.7059Z" fill="#C6DDF0"/>
</g>
<defs>
<clipPath id="clip0_41_321">
<rect width="46" height="46" fill="white" transform="translate(21 21)"/>
</clipPath>
</defs>
</svg>
