<svg width="88" height="88" viewBox="0 0 88 88" fill="none" xmlns="http://www.w3.org/2000/svg">
<circle cx="44" cy="44" r="44" fill="black"/>
<g clip-path="url(#clip0_39_185)">
<path d="M44.1578 45.5644C50.9303 45.5644 56.44 40.0547 56.44 33.2822C56.44 26.5098 50.9303 21 44.1578 21C37.3852 21 31.8755 26.5098 31.8755 33.2822C31.8755 40.0547 37.3853 45.5644 44.1578 45.5644ZM44.1578 22.3503C50.1856 22.3503 55.0897 27.2543 55.0897 33.2822C55.0897 39.3101 50.1856 44.2142 44.1578 44.2142C38.1299 44.2142 33.2257 39.3102 33.2257 33.2822C33.2257 27.2544 38.1299 22.3503 44.1578 22.3503Z" fill="#BD632F"/>
<path d="M44.1579 42.1651C49.0558 42.1651 53.0405 38.1803 53.0405 33.2825C53.0405 28.3847 49.0558 24.3999 44.1579 24.3999C41.9469 24.3999 39.828 25.2174 38.1916 26.7018C37.9154 26.9524 37.8947 27.3793 38.1452 27.6555C38.3958 27.9317 38.8228 27.9526 39.0989 27.7019C40.4863 26.4433 42.283 25.7502 44.1579 25.7502C48.3113 25.7502 51.6903 29.1292 51.6903 33.2825C51.6903 37.4358 48.3113 40.8148 44.1579 40.8148C40.0046 40.8148 36.6257 37.4359 36.6257 33.2825C36.6257 32.0283 36.9398 30.7869 37.5343 29.6926C37.7123 29.3649 37.591 28.9551 37.2634 28.7771C36.9358 28.599 36.5259 28.7205 36.3479 29.0481C35.6463 30.3396 35.2754 31.8038 35.2754 33.2825C35.2754 38.1803 39.26 42.1651 44.1579 42.1651Z" fill="#BD632F"/>
<path d="M43.901 36.4631C42.8407 36.3985 42.5494 35.7603 42.4954 35.6104C42.4181 35.3218 42.1556 35.109 41.8427 35.109C41.4691 35.109 41.1663 35.4119 41.1663 35.7856C41.1663 35.8398 41.1734 35.8923 41.1854 35.9429L41.1851 35.943C41.1858 35.9454 41.187 35.9501 41.1887 35.9559C41.197 35.9878 41.2068 36.0191 41.2194 36.049C41.3443 36.3934 41.8447 37.4621 43.3192 37.7477V38.646C43.3192 39.0189 43.6215 39.3212 43.9944 39.3212C44.3673 39.3212 44.6695 39.0189 44.6695 38.646V37.768C45.3158 37.6555 45.7499 37.373 46.0213 37.1176C46.5263 36.6423 46.8279 35.9239 46.8279 35.1958C46.8279 34.5117 46.5596 32.8909 44.0742 32.6167C43.5819 32.5623 43.2307 32.4056 43.0302 32.151C42.8533 31.9261 42.8342 31.6777 42.8342 31.5813C42.8342 31.4625 42.8668 30.4212 43.9944 30.4212C44.7341 30.4212 45.0329 30.8917 45.089 30.994C45.1891 31.2425 45.432 31.4181 45.7163 31.4181C46.0899 31.4181 46.3927 31.1152 46.3927 30.7416C46.3927 30.6306 46.3654 30.526 46.318 30.4336L46.3183 30.4334C46.1281 30.0197 45.5907 29.3726 44.6694 29.1498V28.2435C44.6694 27.8707 44.3672 27.5684 43.9943 27.5684C43.6214 27.5684 43.3191 27.8707 43.3191 28.2435V29.1469C41.9865 29.4633 41.4838 30.7067 41.4838 31.5812C41.4838 32.5536 42.1234 33.7598 43.926 33.9587C45.4774 34.1299 45.4774 34.9321 45.4774 35.1957C45.4774 35.4758 45.3772 35.8694 45.0958 36.1342C44.8298 36.3845 44.428 36.4952 43.901 36.4631Z" fill="#BD632F"/>
<path d="M32.7012 52.2653C32.5736 52.1296 32.3957 52.0527 32.2094 52.0527C32.0232 52.0527 31.8453 52.1296 31.7176 52.2653L27.1314 57.1409C26.9468 57.3372 26.8966 57.6242 27.0034 57.8714C27.1102 58.1186 27.3538 58.2786 27.6232 58.2786H28.9487V60.7304C28.9487 61.1032 29.251 61.4056 29.6239 61.4056C29.9967 61.4056 30.2991 61.1032 30.2991 60.7304V57.6035C30.2991 57.2306 29.9967 56.9283 29.6239 56.9283H29.1851L32.2093 53.7131L35.2336 56.9283H34.7948C34.4219 56.9283 34.1196 57.2306 34.1196 57.6035V65.6499H30.2989V63.431C30.2989 63.0581 29.9966 62.7558 29.6237 62.7558C29.2509 62.7558 28.9485 63.0581 28.9485 63.431V66.325C28.9485 66.6979 29.2509 67.0002 29.6237 67.0002H34.7947C35.1675 67.0002 35.4699 66.6979 35.4699 66.325V58.2786H36.7954C37.0647 58.2786 37.3082 58.1186 37.4151 57.8714C37.522 57.6242 37.4718 57.3371 37.2872 57.1409L32.7012 52.2653Z" fill="#BD632F"/>
<path d="M44.6497 47.6203C44.5221 47.4846 44.3441 47.4077 44.1579 47.4077C43.9716 47.4077 43.7937 47.4846 43.6661 47.6203L39.0799 52.496C38.8953 52.6922 38.845 52.9793 38.952 53.2264C39.0588 53.4737 39.3023 53.6337 39.5717 53.6337H40.8972V66.3249C40.8972 66.6978 41.1996 67.0001 41.5724 67.0001H46.7434C47.1163 67.0001 47.4186 66.6978 47.4186 66.3249V53.6337H48.7441C49.0135 53.6337 49.2569 53.4737 49.3639 53.2264C49.4707 52.9793 49.4204 52.6921 49.2358 52.496L44.6497 47.6203ZM46.7434 52.2834C46.3704 52.2834 46.0682 52.5858 46.0682 52.9586V65.6499H42.2475V52.9585C42.2475 52.5857 41.9452 52.2834 41.5723 52.2834H41.1335L44.1578 49.0682L47.182 52.2834H46.7434V52.2834Z" fill="#BD632F"/>
<path d="M56.598 43.3224C56.4704 43.1868 56.2925 43.1099 56.1062 43.1099C55.9201 43.1099 55.742 43.1868 55.6144 43.3224L51.0282 48.1981C50.8436 48.3942 50.7933 48.6813 50.9001 48.9285C51.007 49.1758 51.2505 49.3358 51.5199 49.3358H52.8454V53.4559C52.8454 53.8288 53.1477 54.1311 53.5206 54.1311C53.8935 54.1311 54.1958 53.8288 54.1958 53.4559V48.6607C54.1958 48.2878 53.8935 47.9855 53.5206 47.9855H53.0819L56.1061 44.7704L59.1303 47.9855H58.6916C58.3186 47.9855 58.0164 48.2878 58.0164 48.6607V65.6496H54.1957V56.1565C54.1957 55.7837 53.8935 55.4813 53.5205 55.4813C53.1476 55.4813 52.8453 55.7836 52.8453 56.1565V66.3248C52.8453 66.6976 53.1476 66.9999 53.5205 66.9999H58.6916C59.0645 66.9999 59.3667 66.6976 59.3667 66.3248V49.3358H60.6923C60.9616 49.3358 61.2051 49.1758 61.312 48.9285C61.4189 48.6813 61.3685 48.3942 61.184 48.1981L56.598 43.3224Z" fill="#BD632F"/>
<path d="M29.338 33.5238C29.338 33.151 29.0357 32.8486 28.6629 32.8486H24.703C24.3302 32.8486 24.0278 33.151 24.0278 33.5238C24.0278 33.8967 24.3301 34.199 24.703 34.199H28.6629C29.0358 34.1989 29.338 33.8967 29.338 33.5238Z" fill="#BD632F"/>
<path d="M29.5364 38.8221L28.1281 39.3738C27.7808 39.5098 27.6097 39.9016 27.7457 40.2487C27.85 40.515 28.1048 40.6777 28.3745 40.6777C28.4564 40.6777 28.5397 40.6627 28.6206 40.631L30.029 40.0793C30.3762 39.9433 30.5474 39.5515 30.4113 39.2044C30.2752 38.8573 29.8835 38.6861 29.5364 38.8221Z" fill="#BD632F"/>
<path d="M28.128 27.6735L29.5364 28.2252C29.6174 28.257 29.7006 28.272 29.7825 28.272C30.0522 28.272 30.307 28.1092 30.4113 27.843C30.5474 27.4958 30.3762 27.1041 30.029 26.9681L28.6206 26.4163C28.2732 26.2803 27.8817 26.4515 27.7457 26.7987C27.6096 27.1458 27.7809 27.5375 28.128 27.6735Z" fill="#BD632F"/>
<path d="M63.2971 32.8486H59.3373C58.9643 32.8486 58.6621 33.151 58.6621 33.5238C58.6621 33.8967 58.9643 34.199 59.3373 34.199H63.2971C63.6701 34.199 63.9723 33.8967 63.9723 33.5238C63.9722 33.151 63.67 32.8486 63.2971 32.8486Z" fill="#BD632F"/>
<path d="M57.9712 40.0798L59.3795 40.6315C59.4605 40.6632 59.5438 40.6782 59.6257 40.6782C59.8954 40.6782 60.1502 40.5154 60.2545 40.2492C60.3905 39.9021 60.2194 39.5103 59.8722 39.3743L58.4639 38.8226C58.1164 38.6866 57.7251 38.8578 57.5889 39.205C57.4529 39.5519 57.6241 39.9436 57.9712 40.0798Z" fill="#BD632F"/>
<path d="M58.2178 28.272C58.2997 28.272 58.3831 28.257 58.4639 28.2253L59.8722 27.6735C60.2194 27.5375 60.3905 27.1458 60.2545 26.7986C60.1184 26.4514 59.7266 26.2804 59.3795 26.4163L57.9712 26.968C57.6241 27.104 57.4529 27.4957 57.5889 27.8429C57.6933 28.1093 57.9481 28.272 58.2178 28.272Z" fill="#BD632F"/>
</g>
<defs>
<clipPath id="clip0_39_185">
<rect width="46" height="46" fill="white" transform="translate(21 21)"/>
</clipPath>
</defs>
</svg>
